<?xml version="1.0" encoding="utf-8"?>
<!-- Generator: Adobe Illustrator 22.0.1, SVG Export Plug-In . SVG Version: 6.00 Build 0)  -->
<svg version="1.1" id="Layer_1" xmlns="http://www.w3.org/2000/svg" xmlns:xlink="http://www.w3.org/1999/xlink" x="0px" y="0px"
	 viewBox="0 0 70.9 86.6" style="enable-background:new 0 0 70.9 86.6;" xml:space="preserve">
<style type="text/css">
	.st0{fill:#09B76B;}
	.st1{opacity:0.6;fill:url(#SVGID_1_);}
</style>
<path class="st0" d="M27.2,59.1v27.5H0V23.6C0,10.6,10.6,0,23.6,0h14.3c10.6,0,18.7,2.7,24.4,8.1c5.7,5.4,8.5,12.6,8.5,21.7
	c0,5.5-1.3,10.4-3.8,14.9c-2.5,4.4-6.3,8-11.2,10.6c-4.9,2.6-10.9,3.9-17.9,3.9H27.2z"/>
<linearGradient id="SVGID_1_" gradientUnits="userSpaceOnUse" x1="33.9857" y1="5.2906" x2="33.9857" y2="110.3833">
	<stop  offset="0" style="stop-color:#49FF9C"/>
	<stop  offset="1" style="stop-color:#5BF5FD"/>
</linearGradient>
<path class="st1" d="M7.8,57.7c16.6-19.6,37.3-33,60.1-42.1c-1.4-2.8-3.2-5.2-5.5-7.4C56.8,2.8,48.6,0.1,38,0.1H23.7
	c-13,0-23.6,10.6-23.6,23.6v43.7C2.6,64.1,5.1,60.8,7.8,57.7z"/>
</svg>
