<?xml version="1.0" encoding="utf-8"?>
<!-- Generator: Adobe Illustrator 22.0.1, SVG Export Plug-In . SVG Version: 6.00 Build 0)  -->
<svg version="1.1" id="Layer_1" xmlns="http://www.w3.org/2000/svg" xmlns:xlink="http://www.w3.org/1999/xlink" x="0px" y="0px"
	 viewBox="0 0 599.9 88.8" style="enable-background:new 0 0 599.9 88.8;" xml:space="preserve">
<style type="text/css">
	.st0{fill:#FFFFFF;}
	.st1{fill:#CCCCCC;}
	.st2{fill:#09B76B;}
	.st3{opacity:0.6;fill:url(#SVGID_1_);enable-background:new    ;}
</style>
<path class="st0" d="M122.7,23.2v13.7h25.8v14.3h-25.8v15.2h30.4v21.5H95.7V1.8h57.4v21.4C153.1,23.2,122.7,23.2,122.7,23.2z"/>
<polygon class="st0" points="241,87.9 269.4,87.9 238.1,1.8 206.9,1.8 175.4,87.9 203.8,87.9 222.4,30.6 "/>
<path class="st0" d="M337.1,87.9L320.8,57v30.9h-27V1.8h40.1c7,0,12.9,1.2,17.9,3.7c4.9,2.5,8.7,5.8,11.1,10.1
	c2.5,4.3,3.7,9.1,3.7,14.4c0,5.8-1.6,10.9-4.8,15.3C358.6,49.8,354,53,348,55l18.7,33L337.1,87.9L337.1,87.9z M320.8,39h10.7
	c2.6,0,4.5-0.6,5.8-1.8s1.9-3,1.9-5.5c0-2.3-0.7-4.1-2-5.4s-3.3-1.9-5.8-1.9h-10.7V39H320.8z"/>
<path class="st0" d="M420.5,67.5h26v20.4h-53V1.8h27V67.5z"/>
<path class="st1" d="M508.6,1.8v48.5c0,4,0.9,7.1,2.6,9.4s4.6,3.5,8.5,3.5s6.8-1.2,8.6-3.5c1.9-2.3,2.8-5.5,2.8-9.4V1.8H558v48.5
	c0,8.2-1.7,15.2-5.1,21c-3.4,5.8-8.1,10.2-14,13.1s-12.5,4.4-19.8,4.4s-13.8-1.5-19.4-4.4s-10-7.3-13.2-13c-3.2-5.8-4.7-12.8-4.7-21
	V1.8H508.6z"/>
<path class="st1" d="M599.9,1.8v86.1h-27V1.8H599.9z"/>
<path class="st2" d="M27.2,59.1v27.5H0v-63C0,10.6,10.6,0,23.6,0h14.3c10.6,0,18.7,2.7,24.4,8.1s8.5,12.6,8.5,21.7
	c0,5.5-1.3,10.4-3.8,14.9c-2.5,4.4-6.3,8-11.2,10.6c-4.9,2.6-10.9,3.9-17.9,3.9H27.2V59.1z"/>
<linearGradient id="SVGID_1_" gradientUnits="userSpaceOnUse" x1="34" y1="1249.2906" x2="34" y2="1354.3833" gradientTransform="matrix(1 0 0 1 0 -1244)">
	<stop  offset="0" style="stop-color:#49FF9C"/>
	<stop  offset="1" style="stop-color:#5BF5FD"/>
</linearGradient>
<path class="st3" d="M7.8,57.7c16.6-19.6,37.3-33,60.1-42.1c-1.4-2.8-3.2-5.2-5.5-7.4C56.8,2.8,48.6,0.1,38,0.1H23.7
	c-13,0-23.6,10.6-23.6,23.6v43.7C2.6,64.1,5.1,60.8,7.8,57.7z"/>
</svg>
